<svg width="44" height="22" viewBox="0 0 44 22" fill="none" xmlns="http://www.w3.org/2000/svg">
<path d="M11.8413 0.00110962H4.25092C3.99987 0.00121553 3.75709 0.0909122 3.56627 0.254061C3.37546 0.417211 3.24913 0.643102 3.21002 0.89109L0.140583 20.3519C0.126307 20.4421 0.131749 20.5343 0.156525 20.6221C0.181302 20.7099 0.224827 20.7914 0.284105 20.8608C0.343382 20.9302 0.416998 20.9859 0.499886 21.0241C0.582775 21.0623 0.672968 21.0821 0.76424 21.0821H4.65929C4.83501 21.0819 5.00487 21.0189 5.13832 20.9046C5.27177 20.7903 5.36004 20.6321 5.38726 20.4585L6.25837 14.9421C6.29724 14.6939 6.42347 14.4678 6.61431 14.3044C6.80515 14.141 7.04806 14.0512 7.29927 14.051H9.70067C14.701 14.051 17.5851 11.6319 18.3397 6.83798C18.6804 4.74065 18.353 3.09274 17.3709 1.93865C16.2934 0.671369 14.3814 0.00110962 11.8413 0.00110962ZM12.7168 7.10875C12.3029 9.83196 10.2222 9.83196 8.20923 9.83196H7.06513L7.86966 4.74619C7.89272 4.5974 7.96829 4.46178 8.08268 4.36387C8.19707 4.26596 8.34274 4.21224 8.49331 4.21243H9.0182C10.3876 4.21243 11.6815 4.21243 12.3495 4.99366C12.7479 5.45973 12.8689 6.15219 12.7168 7.10875ZM34.5258 7.02108H30.8937C30.7431 7.02067 30.5973 7.07431 30.4829 7.17226C30.3684 7.2702 30.2929 7.40596 30.2701 7.55485L30.1092 8.57134L29.854 8.20292C29.0672 7.06103 27.3139 6.6793 25.5627 6.6793C21.5467 6.6793 18.1177 9.72099 17.4497 13.9878C17.1035 16.1162 17.5951 18.1514 18.8024 19.5707C19.9121 20.8757 21.4946 21.4195 23.38 21.4195C26.6158 21.4195 28.4102 19.3388 28.4102 19.3388L28.2482 20.3486C28.2338 20.4391 28.2391 20.5316 28.2639 20.6198C28.2887 20.708 28.3324 20.7897 28.3919 20.8594C28.4515 20.9291 28.5254 20.9849 28.6087 21.0232C28.6919 21.0615 28.7825 21.0812 28.8741 21.081H32.1466C32.3978 21.0809 32.6407 20.991 32.8316 20.8276C33.0224 20.6643 33.1486 20.4381 33.1875 20.1899L35.1528 7.75127C35.1667 7.6609 35.1609 7.56858 35.1358 7.48067C35.1107 7.39275 35.0668 7.31131 35.0073 7.24193C34.9477 7.17256 34.8738 7.1169 34.7907 7.07878C34.7076 7.04066 34.6172 7.02098 34.5258 7.02108ZM29.46 14.0943C29.1116 16.1706 27.4614 17.5644 25.3597 17.5644C24.3066 17.5644 23.461 17.2259 22.9194 16.5845C22.3823 15.9475 22.1804 15.0409 22.349 14.0311C22.6786 11.9726 24.3521 10.5333 26.4216 10.5333C27.4537 10.5333 28.2926 10.8762 28.8452 11.5231C29.4012 12.1768 29.6209 13.0889 29.46 14.0943ZM38.8104 0.534876L35.6954 20.3519C35.6811 20.4421 35.6866 20.5343 35.7114 20.6221C35.7361 20.7099 35.7797 20.7914 35.8389 20.8608C35.8982 20.9302 35.9718 20.9859 36.0547 21.0241C36.1376 21.0623 36.2278 21.0821 36.3191 21.0821H39.4507C39.9711 21.0821 40.4128 20.7048 40.4927 20.191L43.5643 0.731293C43.5786 0.64109 43.5731 0.548869 43.5484 0.460969C43.5236 0.373068 43.4801 0.291574 43.4208 0.222088C43.3616 0.152601 43.288 0.0967705 43.2051 0.0584332C43.1222 0.0200959 43.032 0.000161617 42.9407 0H39.434C39.2835 0.000533076 39.138 0.0546515 39.0237 0.152661C38.9095 0.250671 38.8338 0.386167 38.8104 0.534876Z" fill="#8D8D9D"/>
</svg>
